<svg version="1.1" id="Layer_1" xmlns="http://www.w3.org/2000/svg" xmlns:xlink="http://www.w3.org/1999/xlink" x="0px" y="0px"
	 width="100%" viewBox="0 0 1024 1024" enable-background="new 0 0 1024 1024" xml:space="preserve">
<path fill="#233241" opacity="1.000000" stroke="none" 
	d="
M1025.000000,480.000000 
	C1025.000000,501.687561 1025.000000,523.375122 1024.600586,545.708374 
	C1023.801025,551.269836 1023.567383,556.205994 1022.968323,561.097473 
	C1021.403015,573.877197 1019.675415,586.637085 1018.016968,599.405396 
	C1014.985840,622.742004 1008.947876,645.407593 1001.872375,667.752136 
	C992.657043,696.854248 981.057312,725.010254 966.584351,751.969177 
	C952.839478,777.571960 937.537415,802.088135 919.618225,825.029602 
	C903.622742,845.507996 887.028687,865.385620 867.664429,882.773376 
	C854.591125,894.512268 841.375854,906.103638 827.938049,917.421387 
	C822.027527,922.399353 815.405396,926.532410 808.814087,930.744751 
	C808.347900,928.473145 808.023926,926.505981 808.022217,924.538574 
	C807.991089,888.078369 807.998352,851.618225 808.389099,815.126038 
	C816.719910,816.626343 823.105347,814.026978 828.342712,807.984009 
	C844.363220,789.499146 849.151855,768.330872 843.413940,744.721863 
	C839.850708,730.060730 831.605408,718.160095 821.059631,707.622864 
	C799.511597,686.092285 778.060791,664.464417 756.711731,642.410034 
	C757.235718,639.165161 757.948914,636.387146 757.951538,633.608459 
	C758.013916,567.306885 757.995728,501.005219 758.000916,434.703552 
	C758.010681,310.762878 758.025940,186.822189 758.404297,62.935219 
	C764.479614,66.319458 770.158081,69.705544 775.905090,72.971008 
	C802.128845,87.871513 826.110291,105.948433 848.867310,125.585449 
	C860.818420,135.898102 872.144592,147.045166 882.891174,158.615875 
	C896.504211,173.272919 909.902283,188.227753 922.200623,203.984863 
	C940.645203,227.616821 956.204163,253.249359 969.858276,279.928131 
	C976.608765,293.117950 982.771912,306.702789 987.969055,320.570526 
	C995.250671,340.000244 1002.068848,359.664001 1007.786682,379.600098 
	C1012.232605,395.101562 1015.274902,411.077332 1017.877686,427.015961 
	C1020.582947,443.582458 1021.999573,460.358948 1024.024780,477.038116 
	C1024.147583,478.049957 1024.665771,479.013824 1025.000000,480.000000 
z"/>
<path fill="#0B1F2C" opacity="1.000000" stroke="none" 
	d="
M0.999996,546.000000 
	C1.000000,524.312439 1.000000,502.624878 1.402630,480.296722 
	C2.535785,471.325378 3.059961,462.970123 4.044975,454.669556 
	C5.540421,442.067657 6.570850,429.335815 9.217467,416.962646 
	C13.290123,397.922516 17.813429,378.909790 23.501993,360.300079 
	C32.583382,330.591003 44.415440,301.908295 59.116920,274.469086 
	C72.955292,248.640808 87.930740,223.523743 106.670387,200.899353 
	C120.247055,184.508240 134.140381,168.369980 148.241028,152.427216 
	C153.477890,146.506195 159.647308,141.397507 165.500656,136.037628 
	C171.561279,130.487915 177.494308,124.751808 183.944901,119.685089 
	C196.445938,109.865944 209.270737,100.459000 221.971741,91.357376 
	C221.988068,146.553909 221.965988,201.274368 222.049042,255.994644 
	C222.056305,260.775116 222.754272,265.554535 223.000183,270.632294 
	C217.338242,276.471191 211.721222,281.929199 206.292908,287.568787 
	C189.689453,304.818512 189.918564,330.762115 206.843491,347.629089 
	C208.694641,349.473907 211.072861,350.789886 213.922623,352.875031 
	C211.062134,355.247101 209.547256,356.312958 208.255692,357.602539 
	C184.087555,381.733521 159.889969,405.835419 135.813049,430.057220 
	C106.089645,459.959534 106.223404,504.835175 136.005554,534.618347 
	C163.570831,562.184631 191.138840,589.748047 218.693924,617.324524 
	C219.856750,618.488220 220.901428,619.769958 221.983307,621.418823 
	C221.643646,624.966614 221.042419,628.091980 221.040512,631.217773 
	C220.978958,732.185242 220.975204,833.152771 220.637268,933.979126 
	C213.814285,929.009216 207.062790,924.483704 200.868774,919.292847 
	C184.562988,905.627991 168.040787,892.165710 152.498032,877.665283 
	C141.823654,867.706726 132.228531,856.489685 122.901764,845.214172 
	C111.520058,831.454163 100.365005,817.436157 90.119102,802.823547 
	C74.285645,780.242126 60.312950,756.460083 49.102005,731.209106 
	C42.329594,715.955200 35.818974,700.546448 30.075705,684.882812 
	C19.852285,657.000366 11.908357,628.447937 7.999170,598.923523 
	C5.796981,582.291382 3.996756,565.606140 1.971008,548.950195 
	C1.848440,547.942383 1.332757,546.982300 0.999996,546.000000 
z"/>
<path fill="#FFFFFF" opacity="1.000000" stroke="none" 
	d="
M221.961380,90.881241 
	C209.270737,100.459000 196.445938,109.865944 183.944901,119.685089 
	C177.494308,124.751808 171.561279,130.487915 165.500656,136.037628 
	C159.647308,141.397507 153.477890,146.506195 148.241028,152.427216 
	C134.140381,168.369980 120.247055,184.508240 106.670387,200.899353 
	C87.930740,223.523743 72.955292,248.640808 59.116920,274.469086 
	C44.415440,301.908295 32.583382,330.591003 23.501993,360.300079 
	C17.813429,378.909790 13.290123,397.922516 9.217467,416.962646 
	C6.570850,429.335815 5.540421,442.067657 4.044975,454.669556 
	C3.059961,462.970123 2.535785,471.325378 1.402630,479.828064 
	C1.000000,320.406250 1.000000,160.812500 1.000000,1.000000 
	C160.354156,1.000000 319.708435,1.000000 479.356964,1.401138 
	C465.433441,3.257085 451.215637,4.711893 436.582367,6.092777 
	C434.937500,6.342605 433.722626,6.743410 432.476440,6.978196 
	C419.970337,9.334492 407.290009,11.004401 394.990509,14.160642 
	C378.163055,18.478836 361.623993,23.920982 344.568909,28.936996 
	C343.540710,29.098085 342.864594,29.098316 342.274902,29.324173 
	C319.005646,38.236290 295.668030,47.059509 274.029541,59.577839 
	C256.502869,69.717415 239.305054,80.425392 221.961380,90.881241 
z"/>
<path fill="#FFFFFF" opacity="1.000000" stroke="none" 
	d="
M0.999996,546.468628 
	C1.332757,546.982300 1.848440,547.942383 1.971008,548.950195 
	C3.996756,565.606140 5.796981,582.291382 7.999170,598.923523 
	C11.908357,628.447937 19.852285,657.000366 30.075705,684.882812 
	C35.818974,700.546448 42.329594,715.955200 49.102005,731.209106 
	C60.312950,756.460083 74.285645,780.242126 90.119102,802.823547 
	C100.365005,817.436157 111.520058,831.454163 122.901764,845.214172 
	C132.228531,856.489685 141.823654,867.706726 152.498032,877.665283 
	C168.040787,892.165710 184.562988,905.627991 200.868774,919.292847 
	C207.062790,924.483704 213.814285,929.009216 220.767059,934.300537 
	C240.382507,946.265564 259.230804,958.336426 278.809021,969.076721 
	C292.575836,976.628967 307.218964,982.644897 321.696625,988.817017 
	C330.223572,992.452271 339.191650,995.052856 348.133881,998.458496 
	C366.280884,1003.745178 384.130249,1009.227417 402.269958,1013.467407 
	C416.431702,1016.777466 430.933411,1018.675537 445.324432,1020.945190 
	C453.171997,1022.182800 461.103546,1022.888123 469.445374,1023.910522 
	C473.262360,1024.325073 476.631165,1024.662476 480.000000,1025.000000 
	C320.406250,1025.000000 160.812500,1025.000000 1.000000,1025.000000 
	C1.000000,865.645813 1.000000,706.291565 0.999996,546.468628 
z"/>
<path fill="#FFFFFF" opacity="1.000000" stroke="none" 
	d="
M809.106445,931.049194 
	C815.405396,926.532410 822.027527,922.399353 827.938049,917.421387 
	C841.375854,906.103638 854.591125,894.512268 867.664429,882.773376 
	C887.028687,865.385620 903.622742,845.507996 919.618225,825.029602 
	C937.537415,802.088135 952.839478,777.571960 966.584351,751.969177 
	C981.057312,725.010254 992.657043,696.854248 1001.872375,667.752136 
	C1008.947876,645.407593 1014.985840,622.742004 1018.016968,599.405396 
	C1019.675415,586.637085 1021.403015,573.877197 1022.968323,561.097473 
	C1023.567383,556.205994 1023.801025,551.269836 1024.600586,546.177002 
	C1025.000000,705.593750 1025.000000,865.187500 1025.000000,1025.000000 
	C865.645813,1025.000000 706.291565,1025.000000 546.642761,1024.598755 
	C552.852478,1023.797363 559.368835,1023.530823 565.856689,1022.948425 
	C569.940796,1022.581787 573.982483,1021.741821 578.483276,1021.064453 
	C580.585571,1020.999329 582.293701,1021.230713 583.902527,1020.930054 
	C597.714661,1018.348511 611.532898,1015.789429 625.302856,1012.994995 
	C648.135742,1008.361267 670.439514,1001.899658 692.430542,993.063965 
	C714.215698,985.100647 735.152954,976.171387 755.354553,964.810120 
	C762.949280,960.584045 770.341797,956.622070 777.391052,952.122314 
	C788.088013,945.294067 798.546631,938.092285 809.106445,931.049194 
z"/>
<path fill="#FFFFFF" opacity="1.000000" stroke="none" 
	d="
M1025.000000,479.531342 
	C1024.665771,479.013824 1024.147583,478.049957 1024.024780,477.038116 
	C1021.999573,460.358948 1020.582947,443.582458 1017.877686,427.015961 
	C1015.274902,411.077332 1012.232605,395.101562 1007.786682,379.600098 
	C1002.068848,359.664001 995.250671,340.000244 987.969055,320.570526 
	C982.771912,306.702789 976.608765,293.117950 969.858276,279.928131 
	C956.204163,253.249359 940.645203,227.616821 922.200623,203.984863 
	C909.902283,188.227753 896.504211,173.272919 882.891174,158.615875 
	C872.144592,147.045166 860.818420,135.898102 848.867310,125.585449 
	C826.110291,105.948433 802.128845,87.871513 775.905090,72.971008 
	C770.158081,69.705544 764.479614,66.319458 758.247803,62.615135 
	C757.251526,62.097328 756.746094,62.016293 756.307190,61.800152 
	C742.275085,54.889454 728.581299,47.154297 714.139099,41.248848 
	C696.001343,33.832268 677.328064,27.684299 658.730164,21.453609 
	C650.686401,18.758762 642.252930,17.226822 633.637085,14.991817 
	C621.776123,12.528454 610.341980,9.787316 598.756775,8.060478 
	C582.543030,5.643742 566.215210,3.994819 549.941223,1.976554 
	C548.607666,1.811164 547.312805,1.332886 546.000000,0.999994 
	C705.593689,1.000000 865.187439,1.000000 1025.000000,1.000000 
	C1025.000000,160.354156 1025.000000,319.708435 1025.000000,479.531342 
z"/>
<path fill="#182937" opacity="1.000000" stroke="none" 
	d="
M578.043152,1021.114197 
	C573.982483,1021.741821 569.940796,1022.581787 565.856689,1022.948425 
	C559.368835,1023.530823 552.852478,1023.797363 546.174072,1024.598755 
	C524.312439,1025.000000 502.624878,1025.000000 480.468658,1025.000000 
	C476.631165,1024.662476 473.262360,1024.325073 469.446167,1023.452515 
	C468.999176,889.795959 468.990234,756.674500 469.040314,623.553101 
	C469.041992,619.094482 469.639648,614.636108 470.263794,610.299194 
	C499.314850,639.170715 528.103577,667.878967 556.748108,696.730286 
	C559.869751,699.874451 562.598267,703.602905 564.735046,707.486267 
	C568.138184,713.671204 568.962219,720.172119 566.215576,727.151428 
	C561.239319,739.795959 565.571777,749.649475 577.995605,755.649353 
	C578.011841,844.441895 578.027527,932.778015 578.043152,1021.114197 
z"/>
<path fill="#192A39" opacity="1.000000" stroke="none" 
	d="
M545.550049,0.999994 
	C547.312805,1.332886 548.607666,1.811164 549.941223,1.976554 
	C566.215210,3.994819 582.543030,5.643742 598.756775,8.060478 
	C610.341980,9.787316 621.776123,12.528454 633.638184,15.449850 
	C633.999207,95.246017 634.010193,174.409363 633.944885,253.572617 
	C633.943115,255.763901 633.123108,257.954498 632.385742,260.012909 
	C600.342651,228.389496 568.598572,196.898590 536.892334,164.914764 
	C536.953430,109.947899 536.976746,55.473949 537.000000,1.000000 
	C539.700012,1.000000 542.400024,1.000000 545.550049,0.999994 
z"/>
<path fill="#162836" opacity="1.000000" stroke="none" 
	d="
M536.531372,1.000000 
	C536.976746,55.473949 536.953430,109.947899 536.567078,164.782715 
	C526.334351,159.744751 516.887390,153.279892 506.508575,149.165558 
	C483.813629,140.168839 460.401245,140.639771 436.997864,146.430374 
	C436.998413,99.368004 436.998138,52.767353 436.997833,6.166700 
	C451.215637,4.711893 465.433441,3.257085 479.825623,1.401138 
	C498.687561,1.000000 517.375122,1.000000 536.531372,1.000000 
z"/>
<path fill="#EBF0F3" opacity="1.000000" stroke="none" 
	d="
M436.997009,146.892090 
	C460.401245,140.639771 483.813629,140.168839 506.508575,149.165558 
	C516.887390,153.279892 526.334351,159.744751 536.529175,165.275635 
	C568.598572,196.898590 600.342651,228.389496 632.526611,260.324554 
	C636.021423,263.836548 639.071106,266.909760 642.132324,269.971375 
	C672.538025,300.381104 672.498291,345.086212 642.018860,375.585876 
	C617.887878,399.732880 593.737061,423.860016 569.601318,448.002228 
	C568.328552,449.275299 567.114197,450.606873 565.688354,452.104858 
	C567.097351,453.585907 568.304382,454.911041 569.570374,456.177155 
	C604.305237,490.915466 639.046143,525.647705 673.785950,560.381042 
	C677.436584,564.030945 681.003601,567.769287 684.753601,571.314026 
	C693.576904,579.654419 703.284729,583.717346 715.664368,579.050110 
	C719.550476,577.584900 724.614075,577.640259 728.720947,578.668457 
	C740.278687,581.562073 745.596802,593.182556 740.916016,605.276306 
	C737.720642,613.532166 738.630188,621.161682 743.387756,628.027466 
	C747.130432,633.428589 752.129150,637.959351 756.569946,642.876648 
	C778.060791,664.464417 799.511597,686.092285 821.059631,707.622864 
	C831.605408,718.160095 839.850708,730.060730 843.413940,744.721863 
	C849.151855,768.330872 844.363220,789.499146 828.342712,807.984009 
	C823.105347,814.026978 816.719910,816.626343 808.061707,814.978516 
	C792.371033,808.315491 789.589478,794.620422 800.369568,782.265076 
	C803.005676,779.243774 805.260498,775.351318 806.209473,771.494934 
	C809.372009,758.643738 804.456116,747.938904 795.647766,738.895996 
	C783.565918,726.492554 771.224487,714.341187 758.949341,702.127014 
	C747.038086,690.274902 735.070190,678.479675 722.995239,666.363770 
	C709.795593,653.146973 698.972473,639.151306 701.077759,618.930847 
	C684.256958,620.727539 671.450562,613.632507 660.171448,603.025269 
	C651.696411,595.055115 643.479675,586.810425 635.015442,578.388794 
	C602.392700,545.647888 569.902466,513.206177 537.799622,481.151306 
	C514.375549,504.587616 491.149597,527.825684 467.451996,551.535706 
	C468.499176,552.399353 470.020386,553.457886 471.311157,554.747009 
	C509.248108,592.638306 547.143738,630.570862 585.090271,668.452515 
	C597.687439,681.028137 607.627258,694.779358 605.842285,714.291809 
	C616.147888,713.127380 625.222412,715.874939 634.090820,720.588257 
	C638.501709,724.080383 643.100220,726.915833 646.872986,730.597473 
	C662.837158,746.176453 678.540955,762.021790 694.369690,777.739929 
	C703.215515,786.523865 712.119507,795.249329 721.118042,804.313843 
	C722.766235,806.154236 724.280457,807.695251 725.823181,809.207214 
	C738.488220,821.619995 759.505066,825.283569 771.686829,811.554443 
	C775.314148,807.466370 780.929565,806.495972 786.490295,807.467590 
	C794.054260,808.789062 799.188232,813.123657 801.355408,820.480957 
	C803.547852,827.924194 801.940369,834.596130 796.286438,840.125305 
	C784.783997,851.373901 770.780884,857.188904 754.535950,859.084290 
	C739.592285,859.948975 725.832397,857.143127 713.600220,849.377625 
	C706.248718,844.710510 699.802002,838.618164 692.808289,832.858276 
	C669.616394,809.488892 646.579529,786.412720 623.488708,763.390686 
	C621.381775,761.290100 619.089111,759.291443 616.606262,757.668335 
	C609.708069,753.158569 602.510132,750.847534 593.984375,753.317383 
	C588.900208,754.790283 583.340820,754.622986 577.995056,755.192993 
	C565.571777,749.649475 561.239319,739.795959 566.215576,727.151428 
	C568.962219,720.172119 568.138184,713.671204 564.735046,707.486267 
	C562.598267,703.602905 559.869751,699.874451 556.748108,696.730286 
	C528.103577,667.878967 499.314850,639.170715 470.122192,609.990356 
	C459.455780,599.368652 449.235321,589.177429 438.782410,578.754395 
	C423.389954,594.171692 408.062836,609.154602 393.166962,624.554565 
	C380.148712,638.013367 365.381958,648.667847 347.461945,655.470825 
	C341.117676,657.049683 335.221008,658.836975 329.201782,659.977600 
	C298.934662,665.712891 271.025879,659.485107 245.925598,641.964905 
	C237.282944,635.932251 229.938599,628.039673 222.001160,620.996704 
	C220.901428,619.769958 219.856750,618.488220 218.693924,617.324524 
	C191.138840,589.748047 163.570831,562.184631 136.005554,534.618347 
	C106.223404,504.835175 106.089645,459.959534 135.813049,430.057220 
	C159.889969,405.835419 184.087555,381.733521 208.255692,357.602539 
	C209.547256,356.312958 211.062134,355.247101 213.922623,352.875031 
	C211.072861,350.789886 208.694641,349.473907 206.843491,347.629089 
	C189.918564,330.762115 189.689453,304.818512 206.292908,287.568787 
	C211.721222,281.929199 217.338242,276.471191 223.313324,270.490906 
	C240.129196,253.690338 256.428406,237.255875 272.892090,220.987808 
	C290.138489,203.946320 316.082886,203.916000 333.377472,220.826645 
	C335.256256,222.663773 336.654968,224.991898 338.542877,227.437500 
	C341.829803,223.932541 344.078888,221.534241 346.628113,219.009232 
	C358.572998,207.246384 370.491577,195.869080 381.796326,183.911469 
	C397.448700,167.355118 414.959839,153.812454 436.997009,146.892090 
M464.627869,499.765808 
	C479.226074,485.165314 493.842926,470.583405 508.417297,455.959167 
	C523.222900,441.102875 537.986694,426.204956 553.310242,411.017670 
	C574.373047,389.972992 595.515747,369.007416 616.471313,347.856445 
	C631.035889,333.156158 630.859253,312.091980 616.340454,297.514282 
	C610.587830,291.738312 604.833923,285.963501 599.050049,280.218872 
	C583.480713,264.755157 567.895020,249.307968 552.027832,233.234161 
	C541.667847,222.859985 531.492371,212.292999 520.901367,202.160278 
	C507.563812,189.399811 491.690399,182.165421 472.147125,181.323059 
	C451.992645,180.831482 433.941467,186.749329 419.133270,200.465637 
	C405.584625,213.015274 392.787537,226.379288 379.727722,239.452835 
	C369.385223,249.806244 359.146393,260.263245 348.241852,270.966125 
	C315.009949,304.184082 281.776031,337.400024 248.553925,370.627808 
	C247.269989,371.911926 246.099884,373.309845 244.254333,374.948853 
	C216.924866,402.262939 189.552155,429.533966 162.283264,456.908386 
	C147.598038,471.650452 147.430161,492.249023 161.800888,507.347992 
	C167.655060,513.498840 173.762451,519.409546 179.781235,525.402710 
	C201.373123,546.902893 222.976364,568.391541 244.886124,590.422058 
	C268.764740,615.270569 297.316589,624.683899 331.963501,616.428284 
	C346.918060,612.387207 359.717529,604.663696 370.636169,593.748352 
	C400.780670,563.613220 430.917786,533.470581 461.046722,503.319855 
	C462.091614,502.274261 463.018768,501.110992 464.627869,499.765808 
M294.338104,252.829330 
	C275.032990,272.130707 255.726776,291.431030 236.423325,310.734100 
	C229.908279,317.248993 229.909607,317.620331 236.597580,324.174408 
	C237.399002,324.959747 238.314819,325.628326 238.422394,325.718445 
	C262.975494,301.177704 287.279083,276.886322 311.615021,252.562653 
	C304.187958,243.780029 303.436218,243.734039 295.193878,251.973618 
	C295.076141,252.091293 294.958069,252.208603 294.338104,252.829330 
z"/>
<path fill="#1D2D3C" opacity="1.000000" stroke="none" 
	d="
M756.711731,642.410034 
	C752.129150,637.959351 747.130432,633.428589 743.387756,628.027466 
	C738.630188,621.161682 737.720642,613.532166 740.916016,605.276306 
	C745.596802,593.182556 740.278687,581.562073 728.720947,578.668457 
	C724.614075,577.640259 719.550476,577.584900 715.664368,579.050110 
	C703.284729,583.717346 693.576904,579.654419 684.753601,571.314026 
	C681.003601,567.769287 677.436584,564.030945 673.785950,560.381042 
	C639.046143,525.647705 604.305237,490.915466 569.570374,456.177155 
	C568.304382,454.911041 567.097351,453.585907 565.688354,452.104858 
	C567.114197,450.606873 568.328552,449.275299 569.601318,448.002228 
	C593.737061,423.860016 617.887878,399.732880 642.018860,375.585876 
	C672.498291,345.086212 672.538025,300.381104 642.132324,269.971375 
	C639.071106,266.909760 636.021423,263.836548 632.825562,260.457062 
	C633.123108,257.954498 633.943115,255.763901 633.944885,253.572617 
	C634.010193,174.409363 633.999207,95.246017 633.997681,15.624668 
	C642.252930,17.226822 650.686401,18.758762 658.730164,21.453609 
	C677.328064,27.684299 696.001343,33.832268 714.139099,41.248848 
	C728.581299,47.154297 742.275085,54.889454 756.307190,61.800152 
	C756.746094,62.016293 757.251526,62.097328 757.882446,62.561432 
	C758.025940,186.822189 758.010681,310.762878 758.000916,434.703552 
	C757.995728,501.005219 758.013916,567.306885 757.951538,633.608459 
	C757.948914,636.387146 757.235718,639.165161 756.711731,642.410034 
z"/>
<path fill="#20303E" opacity="1.000000" stroke="none" 
	d="
M723.127197,666.659485 
	C735.070190,678.479675 747.038086,690.274902 758.949341,702.127014 
	C771.224487,714.341187 783.565918,726.492554 795.647766,738.895996 
	C804.456116,747.938904 809.372009,758.643738 806.209473,771.494934 
	C805.260498,775.351318 803.005676,779.243774 800.369568,782.265076 
	C789.589478,794.620422 792.371033,808.315491 807.670166,815.010498 
	C807.998352,851.618225 807.991089,888.078369 808.022217,924.538574 
	C808.023926,926.505981 808.347900,928.473145 808.814148,930.744812 
	C798.546631,938.092285 788.088013,945.294067 777.391052,952.122314 
	C770.341797,956.622070 762.949280,960.584045 755.355164,964.352051 
	C754.999756,928.994080 754.999695,894.070862 754.999634,859.147583 
	C770.780884,857.188904 784.783997,851.373901 796.286438,840.125305 
	C801.940369,834.596130 803.547852,827.924194 801.355408,820.480957 
	C799.188232,813.123657 794.054260,808.789062 786.490295,807.467590 
	C780.929565,806.495972 775.314148,807.466370 771.686829,811.554443 
	C759.505066,825.283569 738.488220,821.619995 725.823181,809.207214 
	C724.280457,807.695251 722.766235,806.154236 721.407227,804.058533 
	C722.050476,801.103577 722.932556,798.717957 722.939514,796.329773 
	C723.064880,753.106506 723.084778,709.882996 723.127197,666.659485 
z"/>
<path fill="#0F2230" opacity="1.000000" stroke="none" 
	d="
M221.983322,621.418823 
	C229.938599,628.039673 237.282944,635.932251 245.925598,641.964905 
	C271.025879,659.485107 298.934662,665.712891 329.201782,659.977600 
	C335.221008,658.836975 341.117676,657.049683 347.496338,655.979492 
	C347.934967,770.305115 347.948151,884.211975 347.961334,998.118774 
	C339.191650,995.052856 330.223572,992.452271 321.696625,988.817017 
	C307.218964,982.644897 292.575836,976.628967 278.809021,969.076721 
	C259.230804,958.336426 240.382507,946.265564 221.092590,934.441650 
	C220.975204,833.152771 220.978958,732.185242 221.040512,631.217773 
	C221.042419,628.091980 221.643646,624.966614 221.983322,621.418823 
z"/>
<path fill="#102330" opacity="1.000000" stroke="none" 
	d="
M346.328003,219.135956 
	C344.078888,221.534241 341.829803,223.932541 338.542877,227.437500 
	C336.654968,224.991898 335.256256,222.663773 333.377472,220.826645 
	C316.082886,203.916000 290.138489,203.946320 272.892090,220.987808 
	C256.428406,237.255875 240.129196,253.690338 223.444550,270.193054 
	C222.754272,265.554535 222.056305,260.775116 222.049042,255.994644 
	C221.965988,201.274368 221.988068,146.553909 221.971741,91.357376 
	C239.305054,80.425392 256.502869,69.717415 274.029541,59.577839 
	C295.668030,47.059509 319.005646,38.236290 342.274902,29.324173 
	C342.864594,29.098316 343.540710,29.098085 344.579285,29.413128 
	C344.988037,90.749878 344.980225,151.666138 345.055939,212.582291 
	C345.058655,214.767365 345.885345,216.951431 346.328003,219.135956 
z"/>
<path fill="#132533" opacity="1.000000" stroke="none" 
	d="
M346.628113,219.009232 
	C345.885345,216.951431 345.058655,214.767365 345.055939,212.582291 
	C344.980225,151.666138 344.988037,90.749878 344.971680,29.357498 
	C361.623993,23.920982 378.163055,18.478836 394.990509,14.160642 
	C407.290009,11.004401 419.970337,9.334492 432.476440,6.978196 
	C433.722626,6.743410 434.937500,6.342605 436.582367,6.092777 
	C436.998138,52.767353 436.998413,99.368004 436.997864,146.430374 
	C414.959839,153.812454 397.448700,167.355118 381.796326,183.911469 
	C370.491577,195.869080 358.572998,207.246384 346.628113,219.009232 
z"/>
<path fill="#142634" opacity="1.000000" stroke="none" 
	d="
M348.133881,998.458496 
	C347.948151,884.211975 347.934967,770.305115 347.887390,655.889648 
	C365.381958,648.667847 380.148712,638.013367 393.166962,624.554565 
	C408.062836,609.154602 423.389954,594.171692 438.782410,578.754395 
	C449.235321,589.177429 459.455780,599.368652 469.817871,609.868774 
	C469.639648,614.636108 469.041992,619.094482 469.040314,623.553101 
	C468.990234,756.674500 468.999176,889.795959 468.997986,1023.375427 
	C461.103546,1022.888123 453.171997,1022.182800 445.324432,1020.945190 
	C430.933411,1018.675537 416.431702,1016.777466 402.269958,1013.467407 
	C384.130249,1009.227417 366.280884,1003.745178 348.133881,998.458496 
z"/>
<path fill="#1B2C3A" opacity="1.000000" stroke="none" 
	d="
M577.995605,755.649353 
	C583.340820,754.622986 588.900208,754.790283 593.984375,753.317383 
	C602.510132,750.847534 609.708069,753.158569 616.606262,757.668335 
	C619.089111,759.291443 621.381775,761.290100 623.488708,763.390686 
	C646.579529,786.412720 669.616394,809.488892 692.816650,833.275513 
	C692.643799,836.456848 692.043579,838.912842 692.041626,841.369324 
	C692.001160,891.950745 692.028931,942.532227 692.043091,993.113708 
	C670.439514,1001.899658 648.135742,1008.361267 625.302856,1012.994995 
	C611.532898,1015.789429 597.714661,1018.348511 583.902527,1020.930054 
	C582.293701,1021.230713 580.585571,1020.999329 578.483276,1021.064453 
	C578.027527,932.778015 578.011841,844.441895 577.995605,755.649353 
z"/>
<path fill="#1F2F3E" opacity="1.000000" stroke="none" 
	d="
M692.430542,993.063965 
	C692.028931,942.532227 692.001160,891.950745 692.041626,841.369324 
	C692.043579,838.912842 692.643799,836.456848 692.957031,833.583496 
	C699.802002,838.618164 706.248718,844.710510 713.600220,849.377625 
	C725.832397,857.143127 739.592285,859.948975 754.535950,859.084290 
	C754.999695,894.070862 754.999756,928.994080 754.999268,964.375366 
	C735.152954,976.171387 714.215698,985.100647 692.430542,993.063965 
z"/>
<path fill="#0F222F" opacity="1.000000" stroke="none" 
	d="
M244.876740,374.654755 
	C246.099884,373.309845 247.269989,371.911926 248.553925,370.627808 
	C281.776031,337.400024 315.009949,304.184082 348.724121,271.225769 
	C349.470886,273.442841 349.954712,275.399170 349.964569,277.357910 
	C350.030426,290.524231 349.995605,303.691010 349.633545,317.011536 
	C343.047516,318.831726 336.811340,320.461609 330.597443,322.172485 
	C319.834351,325.135864 312.346710,331.724854 309.366608,342.602051 
	C302.862152,366.343323 296.515808,390.129456 290.343689,413.959106 
	C288.937988,419.386292 288.288849,425.087006 291.974365,430.544922 
	C294.355347,434.810577 296.156647,439.240570 299.209564,442.497253 
	C309.570709,453.550079 320.374298,464.188141 331.006317,475.454285 
	C331.002502,497.700165 330.977325,519.476501 331.006287,541.252686 
	C331.039673,566.351562 331.120880,591.450439 331.181335,616.549316 
	C297.316589,624.683899 268.764740,615.270569 244.841400,589.630920 
	C244.864441,563.046021 244.986877,537.252197 244.987946,511.458435 
	C244.989822,465.857208 244.917816,420.255981 244.876740,374.654755 
z"/>
<path fill="#172937" opacity="1.000000" stroke="none" 
	d="
M552.768799,411.325317 
	C537.986694,426.204956 523.222900,441.102875 508.417297,455.959167 
	C493.842926,470.583405 479.226074,485.165314 464.312103,499.415375 
	C463.586945,489.871765 463.177551,480.678589 462.886108,471.180511 
	C464.613037,467.607635 466.791473,464.496094 467.739227,461.046417 
	C474.170532,437.637085 480.561890,414.211761 486.499512,390.673920 
	C489.231262,379.844727 487.044830,369.856659 478.496643,361.866638 
	C476.437469,359.941864 474.585236,357.795654 472.724487,355.241913 
	C472.874084,352.401855 472.991516,350.071228 472.992004,347.740570 
	C473.003296,292.409729 473.002014,237.078903 473.003021,181.748077 
	C491.690399,182.165421 507.563812,189.399811 520.901367,202.160278 
	C531.492371,212.292999 541.667847,222.859985 551.846924,233.833038 
	C551.444336,235.717590 551.029297,237.003159 551.028564,238.288940 
	C550.996460,294.361755 550.986450,350.434631 551.075439,406.507294 
	C551.078003,408.114227 552.179688,409.719360 552.768799,411.325317 
z"/>
<path fill="#192A39" opacity="1.000000" stroke="none" 
	d="
M633.898438,720.320923 
	C625.222412,715.874939 616.147888,713.127380 605.842285,714.291809 
	C607.627258,694.779358 597.687439,681.028137 585.090271,668.452515 
	C547.143738,630.570862 509.248108,592.638306 471.311157,554.747009 
	C470.020386,553.457886 468.499176,552.399353 467.451996,551.535706 
	C491.149597,527.825684 514.375549,504.587616 537.799622,481.151306 
	C569.902466,513.206177 602.392700,545.647888 634.839355,578.792236 
	C634.530579,581.784485 634.037598,584.073608 634.033569,586.363647 
	C633.954407,631.016052 633.932312,675.668457 633.898438,720.320923 
z"/>
<path fill="#1D2D3C" opacity="1.000000" stroke="none" 
	d="
M634.090759,720.588257 
	C633.932312,675.668457 633.954407,631.016052 634.033569,586.363647 
	C634.037598,584.073608 634.530579,581.784485 634.971924,579.091431 
	C643.479675,586.810425 651.696411,595.055115 660.171448,603.025269 
	C671.450562,613.632507 684.256958,620.727539 701.077759,618.930847 
	C698.972473,639.151306 709.795593,653.146973 722.995239,666.363770 
	C723.084778,709.882996 723.064880,753.106506 722.939514,796.329773 
	C722.932556,798.717957 722.050476,801.103577 721.286499,803.745728 
	C712.119507,795.249329 703.215515,786.523865 694.369690,777.739929 
	C678.540955,762.021790 662.837158,746.176453 646.872986,730.597473 
	C643.100220,726.915833 638.501709,724.080383 634.090759,720.588257 
z"/>
<path fill="#142634" opacity="1.000000" stroke="none" 
	d="
M472.575073,181.535568 
	C473.002014,237.078903 473.003296,292.409729 472.992004,347.740570 
	C472.991516,350.071228 472.874084,352.401855 472.436920,355.041809 
	C457.507202,340.831573 443.065521,326.194611 428.303772,311.887909 
	C425.208649,308.888184 420.935089,307.104370 416.902496,304.510773 
	C410.402252,304.238770 403.954254,303.094788 398.053833,304.409149 
	C381.910400,308.005188 365.997559,312.636353 349.993408,316.857666 
	C349.995605,303.691010 350.030426,290.524231 349.964569,277.357910 
	C349.954712,275.399170 349.470886,273.442841 349.033936,271.079803 
	C359.146393,260.263245 369.385223,249.806244 379.727722,239.452835 
	C392.787537,226.379288 405.584625,213.015274 419.133270,200.465637 
	C433.941467,186.749329 451.992645,180.831482 472.575073,181.535568 
z"/>
<path fill="#0C202D" opacity="1.000000" stroke="none" 
	d="
M244.565521,374.801819 
	C244.917816,420.255981 244.989822,465.857208 244.987946,511.458435 
	C244.986877,537.252197 244.864441,563.046021 244.685989,589.362183 
	C222.976364,568.391541 201.373123,546.902893 179.781235,525.402710 
	C173.762451,519.409546 167.655060,513.498840 161.800888,507.347992 
	C147.430161,492.249023 147.598038,471.650452 162.283264,456.908386 
	C189.552155,429.533966 216.924866,402.262939 244.565521,374.801819 
z"/>
<path fill="#132533" opacity="1.000000" stroke="none" 
	d="
M462.768188,471.485413 
	C463.177551,480.678589 463.586945,489.871765 463.998566,499.533752 
	C463.018768,501.110992 462.091614,502.274261 461.046722,503.319855 
	C430.917786,533.470581 400.780670,563.613220 370.636169,593.748352 
	C359.717529,604.663696 346.918060,612.387207 331.572418,616.488770 
	C331.120880,591.450439 331.039673,566.351562 331.006287,541.252686 
	C330.977325,519.476501 331.002502,497.700165 331.299805,475.610901 
	C337.039307,480.670044 342.389587,486.140900 347.948578,491.390747 
	C355.857697,498.860046 364.928131,502.872894 376.058044,500.042816 
	C381.999817,498.532013 387.953735,497.068329 393.888092,495.529083 
	C409.929413,491.368225 425.963226,487.178345 442.324707,483.139526 
	C448.965393,482.795593 455.407562,482.594940 459.116364,475.733765 
	C459.838745,474.750092 460.436615,474.020874 461.230408,473.045898 
	C461.873657,472.361877 462.320923,471.923645 462.768188,471.485413 
z"/>
<path fill="#1A2B39" opacity="1.000000" stroke="none" 
	d="
M553.039551,411.171509 
	C552.179688,409.719360 551.078003,408.114227 551.075439,406.507294 
	C550.986450,350.434631 550.996460,294.361755 551.028564,238.288940 
	C551.029297,237.003159 551.444336,235.717590 551.990967,234.143066 
	C567.895020,249.307968 583.480713,264.755157 599.050049,280.218872 
	C604.833923,285.963501 610.587830,291.738312 616.340454,297.514282 
	C630.859253,312.091980 631.035889,333.156158 616.471313,347.856445 
	C595.515747,369.007416 574.373047,389.972992 553.039551,411.171509 
z"/>
<path fill="#0F222F" opacity="1.000000" stroke="none" 
	d="
M294.589111,252.577713 
	C294.958069,252.208603 295.076141,252.091293 295.193878,251.973618 
	C303.436218,243.734039 304.187958,243.780029 311.615021,252.562653 
	C287.279083,276.886322 262.975494,301.177704 238.422394,325.718445 
	C238.314819,325.628326 237.399002,324.959747 236.597580,324.174408 
	C229.909607,317.620331 229.908279,317.248993 236.423325,310.734100 
	C255.726776,291.431030 275.032990,272.130707 294.589111,252.577713 
z"/>
<path fill="#70D68D" opacity="1.000000" stroke="none" 
	d="
M349.633545,317.011536 
	C365.997559,312.636353 381.910400,308.005188 398.053833,304.409149 
	C403.954254,303.094788 410.402252,304.238770 416.796082,304.902771 
	C412.924225,320.023468 408.856720,334.502686 404.469177,348.818604 
	C402.872498,348.574493 401.506012,348.153870 400.332733,348.464020 
	C384.485657,352.653778 368.671509,356.967896 352.832977,361.190369 
	C349.974152,361.952545 348.592773,363.497437 347.826630,366.516815 
	C344.487457,379.676239 340.661804,392.712158 337.313629,405.869476 
	C336.330505,409.732849 336.338013,413.848297 335.538025,417.980774 
	C320.779144,422.132751 306.373718,426.152130 291.968292,430.171539 
	C288.288849,425.087006 288.937988,419.386292 290.343689,413.959106 
	C296.515808,390.129456 302.862152,366.343323 309.366608,342.602051 
	C312.346710,331.724854 319.834351,325.135864 330.597443,322.172485 
	C336.811340,320.461609 343.047516,318.831726 349.633545,317.011536 
z"/>
<path fill="#1B3344" opacity="1.000000" stroke="none" 
	d="
M291.974365,430.544922 
	C306.373718,426.152130 320.779144,422.132751 335.817780,418.029724 
	C336.638000,417.975281 336.825012,418.004395 337.166138,418.324677 
	C348.664612,430.027527 359.894043,441.558624 371.486206,452.712738 
	C373.090698,454.256622 376.704468,454.862885 379.019592,454.323029 
	C390.450989,451.657288 401.780457,448.539795 413.098938,445.411713 
	C417.833221,444.103333 422.451202,442.374268 427.341187,440.879272 
	C427.560303,440.922119 428.000000,441.000000 428.141296,441.301575 
	C437.998932,451.347290 447.698334,461.108368 457.456696,470.810181 
	C458.470032,471.817627 459.833435,472.472931 461.034424,473.291626 
	C460.436615,474.020874 459.838745,474.750092 458.764282,475.784912 
	C452.858429,478.393707 447.429230,480.696869 442.000000,483.000000 
	C425.963226,487.178345 409.929413,491.368225 393.888092,495.529083 
	C387.953735,497.068329 381.999817,498.532013 376.058044,500.042816 
	C364.928131,502.872894 355.857697,498.860046 347.948578,491.390747 
	C342.389587,486.140900 337.039307,480.670044 331.302338,475.141266 
	C320.374298,464.188141 309.570709,453.550079 299.209564,442.497253 
	C296.156647,439.240570 294.355347,434.810577 291.974365,430.544922 
z"/>
<path fill="#528AEB" opacity="1.000000" stroke="none" 
	d="
M461.230408,473.045868 
	C459.833435,472.472931 458.470032,471.817627 457.456696,470.810181 
	C447.698334,461.108368 437.998932,451.347290 428.299255,440.959534 
	C432.676788,423.996979 437.121094,407.699341 441.287079,391.330811 
	C441.777283,389.404724 441.515320,386.328705 440.286591,385.072601 
	C428.682556,373.210205 416.792969,361.627136 404.943298,349.716797 
	C404.863678,349.307312 404.826447,349.144592 404.789246,348.981873 
	C408.856720,334.502686 412.924225,320.023468 417.098114,305.152283 
	C420.935089,307.104370 425.208649,308.888184 428.303772,311.887909 
	C443.065521,326.194611 457.507202,340.831573 472.350281,355.551208 
	C474.585236,357.795654 476.437469,359.941864 478.496643,361.866638 
	C487.044830,369.856659 489.231262,379.844727 486.499512,390.673920 
	C480.561890,414.211761 474.170532,437.637085 467.739227,461.046417 
	C466.791473,464.496094 464.613037,467.607635 462.886108,471.180511 
	C462.320923,471.923645 461.873657,472.361877 461.230408,473.045868 
z"/>
<path fill="#172937" opacity="1.000000" stroke="none" 
	d="
M442.324707,483.139557 
	C447.429230,480.696869 452.858429,478.393707 458.639709,476.039398 
	C455.407562,482.594940 448.965393,482.795593 442.324707,483.139557 
z"/>
<path fill="#56A26B" opacity="1.000000" stroke="none" 
	d="
M404.469177,348.818604 
	C404.826447,349.144592 404.863678,349.307312 404.693420,349.989105 
	C402.618713,356.452728 400.751434,362.397247 398.454285,368.263184 
	C396.372101,368.203400 394.637390,367.898651 393.081116,368.294769 
	C384.558929,370.463959 375.961060,372.456512 367.660583,375.301636 
	C365.200287,376.144897 362.715027,379.241089 361.810547,381.849152 
	C359.371918,388.881042 357.605743,396.166321 355.933685,403.434113 
	C355.246399,406.421326 355.484619,409.621490 354.910461,412.847595 
	C348.683380,414.658112 342.847687,416.345795 337.012024,418.033508 
	C336.825012,418.004395 336.638000,417.975281 336.171265,417.897186 
	C336.338013,413.848297 336.330505,409.732849 337.313629,405.869476 
	C340.661804,392.712158 344.487457,379.676239 347.826630,366.516815 
	C348.592773,363.497437 349.974152,361.952545 352.832977,361.190369 
	C368.671509,356.967896 384.485657,352.653778 400.332733,348.464020 
	C401.506012,348.153870 402.872498,348.574493 404.469177,348.818604 
z"/>
<path fill="#3E68B2" opacity="1.000000" stroke="none" 
	d="
M398.884155,368.341797 
	C400.751434,362.397247 402.618713,356.452728 404.735840,350.235840 
	C416.792969,361.627136 428.682556,373.210205 440.286591,385.072601 
	C441.515320,386.328705 441.777283,389.404724 441.287079,391.330811 
	C437.121094,407.699341 432.676788,423.996979 428.157959,440.657959 
	C428.000000,441.000000 427.560303,440.922119 427.172668,440.596069 
	C422.158539,435.492920 417.532043,430.715820 413.037292,425.604645 
	C416.235687,415.214386 419.466553,405.202454 422.200958,395.056702 
	C422.637085,393.438507 421.337738,390.745850 420.001343,389.358521 
	C413.112854,382.207886 405.950775,375.320831 398.884155,368.341797 
z"/>
<path fill="#142634" opacity="1.000000" stroke="none" 
	d="
M412.905548,425.938721 
	C417.532043,430.715820 422.158539,435.492920 426.953552,440.553223 
	C422.451202,442.374268 417.833221,444.103333 413.098938,445.411713 
	C401.780457,448.539795 390.450989,451.657288 379.019592,454.323029 
	C376.704468,454.862885 373.090698,454.256622 371.486206,452.712738 
	C359.894043,441.558624 348.664612,430.027527 337.166138,418.324646 
	C342.847687,416.345795 348.683380,414.658112 355.179108,413.038239 
	C362.366302,419.676941 368.781708,426.365692 375.500275,432.734589 
	C377.150330,434.298798 380.141327,436.096680 381.917206,435.608643 
	C392.344971,432.743195 402.595367,429.232117 412.905548,425.938721 
z"/>
<path fill="#EBF0F3" opacity="1.000000" stroke="none" 
	d="
M413.037292,425.604645 
	C402.595367,429.232117 392.344971,432.743195 381.917206,435.608643 
	C380.141327,436.096680 377.150330,434.298798 375.500275,432.734589 
	C368.781708,426.365692 362.366302,419.676941 355.570496,412.915436 
	C355.484619,409.621490 355.246399,406.421326 355.933685,403.434113 
	C357.605743,396.166321 359.371918,388.881042 361.810547,381.849152 
	C362.715027,379.241089 365.200287,376.144897 367.660583,375.301636 
	C375.961060,372.456512 384.558929,370.463959 393.081116,368.294769 
	C394.637390,367.898651 396.372101,368.203400 398.454285,368.263184 
	C405.950775,375.320831 413.112854,382.207886 420.001343,389.358521 
	C421.337738,390.745850 422.637085,393.438507 422.200958,395.056702 
	C419.466553,405.202454 416.235687,415.214386 413.037292,425.604645 
z"/>
</svg>