<?xml version="1.0" encoding="UTF-8"?>
<svg id="Layer_1" data-name="Layer 1" xmlns="http://www.w3.org/2000/svg" viewBox="0 0 40 40">
  <defs>
    <style>
      .cls-1 {
        fill: #0a1e2b;
      }

      .cls-2 {
        fill: #edf1f4;
      }

      .cls-3 {
        fill: #1b3344;
      }

      .cls-4 {
        fill: #71d78d;
      }

      .cls-5 {
        opacity: .25;
      }

      .cls-6 {
        fill: #528aec;
      }
    </style>
  </defs>
  <rect class="cls-1" x="0" y="0" width="40" height="40"/>
  <g>
    <g>
      <g>
        <path class="cls-2" d="m31.13,31.12c-.16,0-.31-.06-.43-.18-.11-.11-.17-.25-.17-.41s.06-.31.17-.41c.24-.24.35-.55.32-.88-.03-.34-.2-.69-.48-.97l-2.79-2.79c-.57-.57-.78-1.15-.62-1.7-.12.03-.24.05-.36.05-.44,0-.89-.23-1.34-.67l-4.56-4.56-.04-.05.02-.08.83-.83,4.56,4.56c.29.29.62.45.92.45.12,0,.24-.03.35-.08.1-.04.19-.05.28-.05.17,0,.32.06.44.17.17.18.22.45.12.71-.18.39-.05.87.37,1.28l2.71,2.71c1.15,1.15.97,2.7.13,3.54-.13.13-.28.19-.43.19Z"/>
        <path class="cls-2" d="m21.68,17.74s.02.01.02.02l4.48,4.48c.29.29.63.47.98.47.13,0,.26-.03.39-.09.08-.03.17-.05.25-.05.14,0,.28.05.38.15.17.17.18.42.11.63-.21.45-.01.96.38,1.36l2.71,2.71c1.08,1.08.96,2.6.13,3.44l-.03.03c-.09.09-.22.14-.35.14s-.27-.05-.37-.16c-.2-.2-.18-.53,0-.71l.03-.03c.48-.48.44-1.31-.19-1.93l-2.79-2.79c-.56-.56-.81-1.15-.55-1.77-.16.07-.33.1-.49.1-.45,0-.88-.24-1.29-.65l-4.56-4.56s-.02-.02-.02-.02l.78-.78m-.01-.2l-.09.09-.78.78-.09.09.07.1h0s.03.04.03.04l4.56,4.56c.46.46.93.7,1.39.7.09,0,.18,0,.26-.03-.11.55.12,1.1.67,1.66l2.79,2.79c.54.54.62,1.28.19,1.72-.28.28-.28.7-.03.95.13.13.3.2.48.2s.34-.07.46-.19c.89-.89,1.08-2.49-.11-3.67l-2.71-2.71c-.39-.39-.52-.83-.35-1.19.11-.3.06-.61-.14-.8-.13-.13-.3-.2-.49-.2-.1,0-.2.02-.3.06-.11.05-.22.08-.33.08-.29,0-.6-.15-.87-.43l-4.48-4.48h0s-.03-.04-.03-.04l-.1-.08h0Z"/>
      </g>
      <g>
        <path class="cls-2" d="m28.76,32.74c-.68,0-1.34-.28-1.85-.8l-2.72-2.72c-.29-.29-.62-.45-.92-.45-.12,0-.24.03-.35.08-.1.04-.19.05-.28.05-.17,0-.32-.06-.44-.17-.18-.18-.22-.45-.12-.71.18-.39.05-.87-.37-1.28l-4.53-4.53.03-.08.83-.83,4.64,4.64c.57.57.78,1.15.62,1.7.12-.03.24-.05.37-.05.44,0,.89.23,1.34.67l2.79,2.79c.31.31.7.48,1.07.48.29,0,.56-.11.75-.3.13-.13.28-.19.44-.19s.3.06.41.17c.23.23.24.61.01.83-.46.46-1.07.71-1.7.71h0Z"/>
        <path class="cls-2" d="m18.03,21.39s.02.01.02.02l4.56,4.56c.56.55.81,1.15.56,1.77.16-.07.33-.1.49-.1.45,0,.88.24,1.28.65l2.79,2.79c.34.34.75.5,1.13.5.3,0,.59-.11.8-.32l.03-.03c.09-.09.23-.14.36-.14s.26.05.35.14c.21.21.2.54.01.73l-.03.03c-.42.42-1,.66-1.62.66s-1.26-.24-1.8-.78l-2.72-2.72c-.29-.29-.63-.47-.98-.47-.13,0-.26.03-.39.09-.08.03-.17.05-.25.05-.14,0-.28-.05-.38-.15-.17-.17-.19-.42-.11-.63.21-.45.01-.96-.38-1.36l-4.48-4.48s-.02-.02-.02-.02l.78-.78m-.01-.2l-.09.09-.78.78-.09.09.07.1h0s.03.04.03.04l4.48,4.48c.39.39.52.83.35,1.19-.11.3-.06.61.14.8.13.13.3.2.49.2.1,0,.2-.02.3-.06.11-.05.22-.08.33-.08.29,0,.6.15.87.43l2.72,2.72c.53.53,1.21.82,1.9.82.65,0,1.28-.26,1.73-.7.14-.14.21-.31.21-.49s-.07-.35-.2-.48c-.12-.12-.28-.19-.46-.19s-.35.07-.46.19h0s-.03.03-.03.03c-.18.18-.42.27-.69.27-.36,0-.73-.17-1.02-.46l-2.79-2.79c-.46-.46-.93-.7-1.39-.7-.09,0-.18,0-.26.03.11-.55-.12-1.1-.67-1.65l-4.56-4.56h0s-.03-.04-.03-.04l-.1-.08h0Z"/>
      </g>
    </g>
    <g>
      <path class="cls-2" d="m12.44,25.42c-1.07,0-2.08-.42-2.84-1.18l-3.56-3.56c-1.01-1.01-1.01-2.64,0-3.65L15.57,7.52c.75-.75,1.74-1.16,2.8-1.16s2.05.41,2.8,1.16l3.59,3.59c.49.49.76,1.14.76,1.83s-.27,1.34-.76,1.83l-9.48,9.48c-.76.76-1.77,1.18-2.84,1.18Zm5.93-17.84c-.78,0-1.51.3-2.06.85l-9.43,9.43c-.55.55-.55,1.44,0,1.99l3.24,3.24c.62.62,1.45.96,2.33.96s1.71-.34,2.33-.96l9.17-9.17c.27-.27.41-.62.41-1s-.15-.73-.41-1l-3.51-3.51c-.55-.55-1.28-.85-2.06-.85Z"/>
      <path class="cls-2" d="m18.37,6.43c1,0,1.99.38,2.75,1.14l3.59,3.59c.98.98.98,2.57,0,3.55l-9.48,9.48c-.77.77-1.78,1.15-2.79,1.15s-2.02-.38-2.79-1.15l-3.56-3.56c-.98-.98-.98-2.57,0-3.54L15.62,7.57c.76-.76,1.75-1.14,2.75-1.14m-5.93,17.7c.86,0,1.72-.33,2.38-.99l9.17-9.17c.58-.58.58-1.52,0-2.1l-3.51-3.51c-.58-.58-1.35-.87-2.11-.87s-1.53.29-2.11.87l-9.43,9.43c-.58.58-.58,1.52,0,2.1l3.24,3.24c.66.66,1.52.99,2.38.99m5.93-17.85c-1.08,0-2.09.42-2.86,1.18l-9.52,9.52c-.5.5-.78,1.17-.78,1.88s.28,1.38.78,1.88l3.56,3.56c.77.77,1.8,1.2,2.89,1.2s2.12-.43,2.89-1.2l9.48-9.48c.5-.5.78-1.17.78-1.88s-.28-1.38-.78-1.88l-3.59-3.59c-.76-.76-1.78-1.18-2.86-1.18h0Zm-5.93,17.7c-.86,0-1.67-.33-2.27-.94l-3.24-3.24c-.25-.25-.39-.59-.39-.94s.14-.69.39-.94l9.43-9.43c.54-.54,1.25-.83,2.01-.83s1.47.3,2.01.83l3.51,3.51c.25.25.39.59.39.94s-.14.69-.39.94l-9.17,9.17c-.61.61-1.41.94-2.27.94h0Z"/>
    </g>
    <g>
      <path class="cls-2" d="m8.7,13.78c-.28-.28-.43-.64-.43-1.03s.15-.76.43-1.03l2.48-2.48c.28-.28.64-.43,1.03-.43s.76.15,1.03.43l.41.41-.83.83-.41-.41c-.05-.05-.13-.08-.21-.08s-.15.03-.21.08l-2.48,2.48c-.05.05-.08.13-.08.21s.03.15.08.21l.41.41-.83.83-.41-.41Z"/>
      <path class="cls-2" d="m12.22,8.88c.35,0,.71.14.98.41l.36.36-.72.72-.36-.36c-.07-.07-.16-.11-.26-.11s-.19.04-.26.11l-2.48,2.48c-.14.14-.14.37,0,.52l.36.36-.72.72-.36-.36c-.54-.54-.54-1.42,0-1.96l2.48-2.48c.27-.27.63-.41.98-.41m0-.15c-.41,0-.8.16-1.09.45l-2.48,2.48c-.29.29-.45.68-.45,1.09s.16.8.45,1.09l.36.36.11.11.11-.11.72-.72.11-.11-.11-.11-.36-.36s-.06-.09-.06-.15.02-.11.06-.15l2.48-2.48s.09-.06.15-.06.11.02.15.06l.36.36.11.11.11-.11.72-.72.11-.11-.11-.11-.36-.36c-.29-.29-.68-.45-1.09-.45h0Z"/>
    </g>
    <g>
      <path class="cls-3" d="m18.05,18.53c-.13.13-.29.22-.48.27l-2.62.7c-.17.05-.35.05-.51,0-.19-.04-.36-.13-.5-.28l-1.92-1.92c-.11-.12-.2-.26-.25-.4l3.67-.99h0s2.61,2.61,2.61,2.61Z"/>
      <path class="cls-4" d="m16.45,12.27l-1.01,3.65h0s-3.67,1-3.67,1c-.07-.2-.08-.41-.02-.61l.7-2.62c.05-.18.14-.35.27-.48h0c.13-.13.29-.22.47-.27l2.62-.7c.21-.06.44-.04.64.03Z"/>
      <path class="cls-6" d="m19.02,15.44l-.7,2.62c-.05.18-.14.34-.27.47l-2.61-2.61h0s1.01-3.65,1.01-3.65c.14.05.27.13.38.24l1.92,1.92c.15.15.24.33.28.53.03.16.03.32-.01.49Z"/>
      <path class="cls-5" d="m13.6,16.63l1.03,1.03c.14.14.33.19.52.14l1.4-.38c.18-.05.33-.19.38-.38l.38-1.4c.05-.18,0-.38-.14-.52l-1.03-1.03c-.14-.14-.33-.19-.52-.14l-1.4.38c-.18.05-.33.19-.38.38l-.38,1.4c-.05.18,0,.38.14.52Z"/>
      <path class="cls-2" d="m16.27,16.76c-.06.06-.14.11-.22.13l-.85.23c-.1.03-.2,0-.28-.07l-.71-.71c-.07-.07-.1-.18-.07-.28l.26-.97c.03-.1.1-.18.2-.2l.97-.26c.1-.03.2,0,.28.07l.71.71c.07.07.1.18.07.28l-.23.85c-.02.09-.07.16-.13.22Z"/>
    </g>
  </g>
</svg>