<?xml version="1.0" encoding="UTF-8"?>
<svg id="Layer_1" data-name="Layer 1" xmlns="http://www.w3.org/2000/svg" viewBox="0 0 40 40">
  <defs>
    <style>
      .cls-1 {
        stroke-width: 1px;
      }

      .cls-1, .cls-2 {
        fill: #528aec;
        stroke: #528aec;
        stroke-miterlimit: 10;
      }

      .cls-3 {
        fill: #1b3344;
      }

      .cls-4 {
        fill: #71d78d;
      }

      .cls-5 {
        fill: #f9f9f9;
      }

      .cls-2 {
        stroke-width: .15px;
      }

      .cls-6 {
        opacity: .25;
      }

      .cls-7 {
        fill: #528aec;
      }
    </style>
  </defs>
  <g>
    <path class="cls-1" d="m32.45,24.37c-.64.3-1.37.02-1.93-.54l-6.36-6.36s-.02-.02-.03-.03l-1.1,1.1s.02.02.03.03l6.47,6.47c.79.79,1.63,1.14,2.51.79-.36.88,0,1.72.79,2.51l3.95,3.95c.88.88.94,2.06.26,2.74l-.04.04c-.26.26-.28.73,0,1.01.3.3.77.28,1.03.02l.04-.04c1.18-1.18,1.35-3.34-.19-4.87l-3.84-3.84c-.56-.56-.84-1.29-.54-1.93.11-.3.09-.66-.15-.9s-.6-.26-.9-.15Z"/>
    <path class="cls-1" d="m35.48,36.6l-.04.04c-.67.67-1.87.6-2.74-.26l-3.95-3.95c-.79-.79-1.63-1.14-2.51-.79.36-.88,0-1.72-.79-2.51l-6.47-6.47s-.02-.02-.03-.03l-1.1,1.1s.02.02.03.03l6.36,6.36c.56.56.84,1.29.54,1.93-.11.3-.09.66.15.9s.6.26.9.15c.64-.3,1.37-.02,1.93.54l3.86,3.86c1.54,1.54,3.67,1.35,4.85.17l.04-.04c.26-.26.28-.73-.02-1.03-.28-.28-.75-.26-1.01,0Z"/>
  </g>
  <path class="cls-1" d="m15.54,3.02L2.04,16.52c-1.39,1.39-1.39,3.64,0,5.03l5.04,5.04c2.18,2.18,5.72,2.18,7.91,0l13.45-13.45c1.39-1.39,1.39-3.64,0-5.03l-5.09-5.09c-2.15-2.15-5.65-2.15-7.8,0Zm11.87,6.12c.82.82.82,2.16,0,2.98l-13,13c-1.86,1.86-4.88,1.86-6.75,0l-4.6-4.6c-.82-.82-.82-2.16,0-2.98l13.38-13.38c1.65-1.65,4.34-1.65,5.99,0l4.97,4.97Z"/>
  <path class="cls-2" d="m12.1,5.44l.51.51-1.02,1.02-.51-.51c-.2-.2-.53-.2-.73,0l-3.51,3.51c-.2.2-.2.53,0,.73l.51.51-1.02,1.02-.51-.51c-.77-.77-.77-2.01,0-2.78l3.51-3.51c.77-.77,2.01-.77,2.78,0Z"/>
  <g>
    <path class="cls-3" d="m18.99,18.56c-.19.19-.42.32-.67.39l-3.72,1c-.24.07-.5.07-.73,0-.26-.06-.51-.19-.71-.39l-2.72-2.72c-.16-.17-.28-.36-.35-.57l5.2-1.4h0s3.7,3.7,3.7,3.7Z"/>
    <path class="cls-4" d="m16.72,9.68l-1.44,5.18h0s-5.2,1.42-5.2,1.42c-.1-.28-.11-.58-.03-.87l.99-3.71c.07-.26.2-.49.39-.67h0c.18-.18.41-.32.66-.38l3.72-1c.3-.08.62-.06.9.05Z"/>
    <path class="cls-7" d="m20.36,14.18l-.99,3.71c-.07.26-.2.48-.38.67l-3.7-3.7h0s1.44-5.18,1.44-5.18c.2.07.38.19.54.34l2.72,2.72c.21.21.35.47.4.75.05.23.04.46-.02.69Z"/>
    <path class="cls-6" d="m12.59,15.77l1.64,1.64c.14.14.33.19.52.14l2.24-.6c.18-.05.33-.19.38-.38l.6-2.24c.05-.18,0-.38-.14-.52l-1.64-1.64c-.14-.14-.33-.19-.52-.14l-2.24.6c-.18.05-.33.19-.38.38l-.6,2.24c-.05.18,0,.38.14.52Z"/>
    <path class="cls-5" d="m16.46,16.05c-.09.09-.2.15-.32.18l-1.2.32c-.14.04-.29,0-.39-.11l-1-1c-.1-.1-.14-.25-.11-.39l.37-1.37c.04-.14.15-.25.29-.29l1.37-.37c.14-.04.29,0,.39.11l1,1c.1.1.14.25.11.39l-.32,1.2c-.03.12-.1.23-.18.32Z"/>
  </g>
</svg>