<?xml version="1.0" encoding="UTF-8"?>
<svg id="Layer_1" data-name="Layer 1" xmlns="http://www.w3.org/2000/svg" viewBox="0 0 13 13">
  <defs>
    <style>
      .cls-1 {
        fill: #1b3344;
      }

      .cls-2 {
        fill: #71d78d;
      }

      .cls-3 {
        fill: #c5ced3;
      }

      .cls-4 {
        fill: #f9f9f9;
      }

      .cls-5 {
        opacity: .25;
      }

      .cls-6 {
        fill: #528aec;
      }
    </style>
  </defs>
  <g>
    <path class="cls-3" d="m10.43,7.88c-.2.09-.43,0-.61-.17l-2.01-2.01s0,0-.01,0l-.35.35s0,0,0,.01l2.04,2.04c.25.25.51.36.79.25-.11.28,0,.54.25.79l1.25,1.25c.28.28.3.65.08.86h-.01c-.08.09-.09.24,0,.33.09.09.24.09.33,0h.01c.37-.38.43-1.07-.06-1.55l-1.21-1.21c-.18-.18-.27-.41-.17-.61.04-.09.03-.21-.05-.28s-.19-.08-.28-.05Z"/>
    <path class="cls-3" d="m11.39,11.74h-.01c-.21.22-.59.2-.86-.07l-1.25-1.25c-.25-.25-.51-.36-.79-.25.11-.28,0-.54-.25-.79l-2.04-2.04s0,0-.01,0l-.35.35s0,0,0,.01l2.01,2.01c.18.18.27.41.17.61-.04.09-.03.21.05.28s.19.08.28.05c.2-.09.43,0,.61.17l1.22,1.22c.49.49,1.16.43,1.53.05h.01c.08-.09.09-.24,0-.34-.09-.09-.24-.08-.32,0Z"/>
  </g>
  <path class="cls-3" d="m5.09,1.14L.83,5.4c-.44.44-.44,1.15,0,1.59l1.59,1.59c.69.69,1.81.69,2.5,0l4.25-4.25c.44-.44.44-1.15,0-1.59l-1.61-1.61c-.68-.68-1.78-.68-2.46,0Zm3.75,1.93c.26.26.26.68,0,.94l-4.11,4.11c-.59.59-1.54.59-2.13,0l-1.45-1.45c-.26-.26-.26-.68,0-.94L5.38,1.5c.52-.52,1.37-.52,1.89,0l1.57,1.57Z"/>
  <path class="cls-3" d="m4.01,1.9l.16.16-.32.32-.16-.16c-.06-.06-.17-.06-.23,0l-1.11,1.11c-.06.06-.06.17,0,.23l.16.16-.32.32-.16-.16c-.24-.24-.24-.64,0-.88l1.11-1.11c.24-.24.64-.24.88,0Z"/>
  <g>
    <path class="cls-1" d="m6.18,6.05c-.06.06-.13.1-.21.12l-1.17.31c-.08.02-.16.02-.23,0-.08-.02-.16-.06-.22-.12l-.86-.86c-.05-.05-.09-.12-.11-.18l1.64-.44h0s1.17,1.17,1.17,1.17Z"/>
    <path class="cls-2" d="m5.46,3.24l-.45,1.63h0s-1.64.45-1.64.45c-.03-.09-.04-.18,0-.28l.31-1.17c.02-.08.06-.15.12-.21h0c.06-.06.13-.1.21-.12l1.17-.31c.1-.03.2-.02.28.02Z"/>
    <path class="cls-6" d="m6.61,4.66l-.31,1.17c-.02.08-.06.15-.12.21l-1.17-1.17h0s.45-1.64.45-1.64c.06.02.12.06.17.11l.86.86c.07.07.11.15.13.24.02.07.01.15,0,.22Z"/>
    <path class="cls-5" d="m4.31,5.31l.22.22c.14.14.33.19.52.14l.3-.08c.18-.05.33-.19.38-.38l.08-.3c.05-.18,0-.38-.14-.52l-.22-.22c-.14-.14-.33-.19-.52-.14l-.3.08c-.18.05-.33.19-.38.38l-.08.3c-.05.18,0,.38.14.52Z"/>
    <path class="cls-4" d="m5.38,5.25s-.06.05-.1.06l-.38.1s-.09,0-.12-.03l-.32-.32s-.05-.08-.03-.12l.12-.43s.05-.08.09-.09l.43-.12s.09,0,.12.03l.32.32s.05.08.03.12l-.1.38s-.03.07-.06.1Z"/>
  </g>
</svg>